<mxfile host="app.diagrams.net" modified="2022-02-08T16:11:26.945Z" agent="5.0 (Windows NT 10.0; Win64; x64) AppleWebKit/537.36 (KHTML, like Gecko) Chrome/97.0.4692.99 Safari/537.36" etag="Ye-GN0Ln-V7-a2rByGiY" version="16.2.7" type="github">
  <diagram id="VZWuRiSOthKG0bByMLzX" name="Page-1">
    <mxGraphModel dx="1038" dy="571" grid="1" gridSize="10" guides="1" tooltips="1" connect="1" arrows="1" fold="1" page="1" pageScale="1" pageWidth="850" pageHeight="1100" math="0" shadow="0">
      <root>
        <mxCell id="0" />
        <mxCell id="1" parent="0" />
        <mxCell id="2qjlxZD3ZFytGv6TbPaf-3" value="US Educational Insitute Covid Tracker" style="swimlane;fontStyle=1;align=center;horizontal=1;startSize=30;collapsible=0;html=1;" parent="1" vertex="1">
          <mxGeometry x="180" y="360" width="580" height="540" as="geometry" />
        </mxCell>
        <mxCell id="2qjlxZD3ZFytGv6TbPaf-12" value="Notify information&amp;nbsp;&lt;br&gt;Update" style="shape=ellipse;html=1;strokeWidth=3;fontStyle=1;whiteSpace=wrap;align=center;perimeter=ellipsePerimeter;" parent="2qjlxZD3ZFytGv6TbPaf-3" vertex="1">
          <mxGeometry x="70" y="70" width="140" height="60" as="geometry" />
        </mxCell>
        <mxCell id="2qjlxZD3ZFytGv6TbPaf-14" value="Toggle Institute Status" style="shape=ellipse;html=1;strokeWidth=3;fontStyle=1;whiteSpace=wrap;align=center;perimeter=ellipsePerimeter;" parent="2qjlxZD3ZFytGv6TbPaf-3" vertex="1">
          <mxGeometry x="80" y="160" width="120" height="60" as="geometry" />
        </mxCell>
        <mxCell id="2qjlxZD3ZFytGv6TbPaf-17" value="Manage and Administrate &lt;br&gt;USCIT" style="shape=ellipse;html=1;strokeWidth=3;fontStyle=1;whiteSpace=wrap;align=center;perimeter=ellipsePerimeter;" parent="2qjlxZD3ZFytGv6TbPaf-3" vertex="1">
          <mxGeometry x="360" y="60" width="160" height="60" as="geometry" />
        </mxCell>
        <mxCell id="2qjlxZD3ZFytGv6TbPaf-16" value="Verify Contributors" style="shape=ellipse;html=1;strokeWidth=3;fontStyle=1;whiteSpace=wrap;align=center;perimeter=ellipsePerimeter;" parent="2qjlxZD3ZFytGv6TbPaf-3" vertex="1">
          <mxGeometry x="380" y="140" width="120" height="60" as="geometry" />
        </mxCell>
        <mxCell id="2qjlxZD3ZFytGv6TbPaf-18" value="Crawl Institute webpages for data accumulation" style="shape=ellipse;html=1;strokeWidth=3;fontStyle=1;whiteSpace=wrap;align=center;perimeter=ellipsePerimeter;" parent="2qjlxZD3ZFytGv6TbPaf-3" vertex="1">
          <mxGeometry x="55" y="310" width="190" height="70" as="geometry" />
        </mxCell>
        <mxCell id="2qjlxZD3ZFytGv6TbPaf-19" value="Calculate Additional Statistics" style="shape=ellipse;html=1;strokeWidth=3;fontStyle=1;whiteSpace=wrap;align=center;perimeter=ellipsePerimeter;" parent="2qjlxZD3ZFytGv6TbPaf-3" vertex="1">
          <mxGeometry x="80" y="430" width="120" height="60" as="geometry" />
        </mxCell>
        <mxCell id="2qjlxZD3ZFytGv6TbPaf-21" value="Export Dashboard Data" style="shape=ellipse;html=1;strokeWidth=3;fontStyle=1;whiteSpace=wrap;align=center;perimeter=ellipsePerimeter;" parent="2qjlxZD3ZFytGv6TbPaf-3" vertex="1">
          <mxGeometry x="360" y="420" width="120" height="60" as="geometry" />
        </mxCell>
        <mxCell id="2qjlxZD3ZFytGv6TbPaf-20" value="View Dashboard" style="shape=ellipse;html=1;strokeWidth=3;fontStyle=1;whiteSpace=wrap;align=center;perimeter=ellipsePerimeter;" parent="2qjlxZD3ZFytGv6TbPaf-3" vertex="1">
          <mxGeometry x="360" y="340" width="120" height="60" as="geometry" />
        </mxCell>
        <mxCell id="2qjlxZD3ZFytGv6TbPaf-28" value="Manage Institutes involved in USICT" style="shape=ellipse;html=1;strokeWidth=3;fontStyle=1;whiteSpace=wrap;align=center;perimeter=ellipsePerimeter;" parent="2qjlxZD3ZFytGv6TbPaf-3" vertex="1">
          <mxGeometry x="380" y="220" width="120" height="60" as="geometry" />
        </mxCell>
        <mxCell id="2qjlxZD3ZFytGv6TbPaf-35" value="&amp;lt;&amp;lt;include&amp;gt;&amp;gt;" style="edgeStyle=none;html=1;endArrow=open;verticalAlign=bottom;dashed=1;labelBackgroundColor=none;rounded=0;entryX=0.5;entryY=0;entryDx=0;entryDy=0;exitX=0.5;exitY=1;exitDx=0;exitDy=0;" parent="2qjlxZD3ZFytGv6TbPaf-3" source="2qjlxZD3ZFytGv6TbPaf-18" target="2qjlxZD3ZFytGv6TbPaf-19" edge="1">
          <mxGeometry width="160" relative="1" as="geometry">
            <mxPoint x="170" y="240" as="sourcePoint" />
            <mxPoint x="330" y="240" as="targetPoint" />
          </mxGeometry>
        </mxCell>
        <mxCell id="Vqywfma38-aa_NVU4E1p-1" value="Update Dashboard" style="shape=ellipse;html=1;strokeWidth=3;fontStyle=1;whiteSpace=wrap;align=center;perimeter=ellipsePerimeter;" vertex="1" parent="2qjlxZD3ZFytGv6TbPaf-3">
          <mxGeometry x="200" y="480" width="120" height="60" as="geometry" />
        </mxCell>
        <mxCell id="2qjlxZD3ZFytGv6TbPaf-13" style="edgeStyle=orthogonalEdgeStyle;rounded=0;orthogonalLoop=1;jettySize=auto;html=1;exitX=0.5;exitY=0.5;exitDx=0;exitDy=0;exitPerimeter=0;entryX=0;entryY=0.5;entryDx=0;entryDy=0;" parent="1" source="2qjlxZD3ZFytGv6TbPaf-6" target="2qjlxZD3ZFytGv6TbPaf-12" edge="1">
          <mxGeometry relative="1" as="geometry" />
        </mxCell>
        <mxCell id="2qjlxZD3ZFytGv6TbPaf-30" style="edgeStyle=orthogonalEdgeStyle;rounded=0;orthogonalLoop=1;jettySize=auto;html=1;exitX=0.5;exitY=0.5;exitDx=0;exitDy=0;exitPerimeter=0;entryX=0;entryY=0.5;entryDx=0;entryDy=0;" parent="1" source="2qjlxZD3ZFytGv6TbPaf-6" target="2qjlxZD3ZFytGv6TbPaf-14" edge="1">
          <mxGeometry relative="1" as="geometry" />
        </mxCell>
        <mxCell id="2qjlxZD3ZFytGv6TbPaf-6" value="Contributor" style="shape=umlActor;html=1;verticalLabelPosition=bottom;verticalAlign=top;align=center;" parent="1" vertex="1">
          <mxGeometry x="100" y="480" width="30" height="60" as="geometry" />
        </mxCell>
        <mxCell id="2qjlxZD3ZFytGv6TbPaf-25" style="edgeStyle=orthogonalEdgeStyle;rounded=0;orthogonalLoop=1;jettySize=auto;html=1;exitX=0.5;exitY=0.5;exitDx=0;exitDy=0;exitPerimeter=0;entryX=1;entryY=0.5;entryDx=0;entryDy=0;" parent="1" source="2qjlxZD3ZFytGv6TbPaf-9" target="2qjlxZD3ZFytGv6TbPaf-17" edge="1">
          <mxGeometry relative="1" as="geometry" />
        </mxCell>
        <mxCell id="2qjlxZD3ZFytGv6TbPaf-26" style="edgeStyle=orthogonalEdgeStyle;rounded=0;orthogonalLoop=1;jettySize=auto;html=1;exitX=0.5;exitY=0.5;exitDx=0;exitDy=0;exitPerimeter=0;entryX=1;entryY=0.5;entryDx=0;entryDy=0;" parent="1" source="2qjlxZD3ZFytGv6TbPaf-9" target="2qjlxZD3ZFytGv6TbPaf-16" edge="1">
          <mxGeometry relative="1" as="geometry" />
        </mxCell>
        <mxCell id="2qjlxZD3ZFytGv6TbPaf-29" style="edgeStyle=orthogonalEdgeStyle;rounded=0;orthogonalLoop=1;jettySize=auto;html=1;exitX=0.5;exitY=0.5;exitDx=0;exitDy=0;exitPerimeter=0;entryX=1;entryY=0.5;entryDx=0;entryDy=0;" parent="1" source="2qjlxZD3ZFytGv6TbPaf-9" target="2qjlxZD3ZFytGv6TbPaf-28" edge="1">
          <mxGeometry relative="1" as="geometry" />
        </mxCell>
        <mxCell id="2qjlxZD3ZFytGv6TbPaf-9" value="Admin" style="shape=umlActor;html=1;verticalLabelPosition=bottom;verticalAlign=top;align=center;" parent="1" vertex="1">
          <mxGeometry x="780" y="440" width="30" height="60" as="geometry" />
        </mxCell>
        <mxCell id="2qjlxZD3ZFytGv6TbPaf-23" style="edgeStyle=orthogonalEdgeStyle;rounded=0;orthogonalLoop=1;jettySize=auto;html=1;exitX=0.5;exitY=0.5;exitDx=0;exitDy=0;exitPerimeter=0;entryX=1;entryY=0.5;entryDx=0;entryDy=0;" parent="1" source="2qjlxZD3ZFytGv6TbPaf-10" target="2qjlxZD3ZFytGv6TbPaf-20" edge="1">
          <mxGeometry relative="1" as="geometry" />
        </mxCell>
        <mxCell id="2qjlxZD3ZFytGv6TbPaf-24" style="edgeStyle=orthogonalEdgeStyle;rounded=0;orthogonalLoop=1;jettySize=auto;html=1;exitX=0.5;exitY=0.5;exitDx=0;exitDy=0;exitPerimeter=0;entryX=1;entryY=0.5;entryDx=0;entryDy=0;" parent="1" source="2qjlxZD3ZFytGv6TbPaf-10" target="2qjlxZD3ZFytGv6TbPaf-21" edge="1">
          <mxGeometry relative="1" as="geometry" />
        </mxCell>
        <mxCell id="2qjlxZD3ZFytGv6TbPaf-10" value="Visitor" style="shape=umlActor;html=1;verticalLabelPosition=bottom;verticalAlign=top;align=center;" parent="1" vertex="1">
          <mxGeometry x="780" y="720" width="30" height="60" as="geometry" />
        </mxCell>
        <mxCell id="2qjlxZD3ZFytGv6TbPaf-31" style="edgeStyle=orthogonalEdgeStyle;rounded=0;orthogonalLoop=1;jettySize=auto;html=1;exitX=0.5;exitY=0.5;exitDx=0;exitDy=0;exitPerimeter=0;entryX=0;entryY=0.5;entryDx=0;entryDy=0;" parent="1" source="2qjlxZD3ZFytGv6TbPaf-11" target="2qjlxZD3ZFytGv6TbPaf-18" edge="1">
          <mxGeometry relative="1" as="geometry" />
        </mxCell>
        <mxCell id="Vqywfma38-aa_NVU4E1p-2" style="edgeStyle=orthogonalEdgeStyle;rounded=0;orthogonalLoop=1;jettySize=auto;html=1;exitX=0.5;exitY=0.5;exitDx=0;exitDy=0;exitPerimeter=0;entryX=0.003;entryY=0.65;entryDx=0;entryDy=0;entryPerimeter=0;" edge="1" parent="1" source="2qjlxZD3ZFytGv6TbPaf-11" target="Vqywfma38-aa_NVU4E1p-1">
          <mxGeometry relative="1" as="geometry">
            <Array as="points">
              <mxPoint x="170" y="700" />
              <mxPoint x="170" y="879" />
            </Array>
          </mxGeometry>
        </mxCell>
        <mxCell id="2qjlxZD3ZFytGv6TbPaf-11" value="USICT System" style="shape=umlActor;html=1;verticalLabelPosition=bottom;verticalAlign=top;align=center;" parent="1" vertex="1">
          <mxGeometry x="110" y="670" width="30" height="60" as="geometry" />
        </mxCell>
      </root>
    </mxGraphModel>
  </diagram>
</mxfile>
